<svg version="1.1" id="Layer_1" xmlns:x="ns_extend;" xmlns:i="ns_ai;" xmlns:graph="ns_graphs;" xmlns="http://www.w3.org/2000/svg" xmlns:xlink="http://www.w3.org/1999/xlink" x="0px" y="0px" viewBox="0 0 473 66" style="enable-background:new 0 0 473 66;" xml:space="preserve">
 <g>
  <path style="fill:#FFFFFF;" d="M70.2,24.5l9.4,22.7l9.2-22.7h6.6v29.8h-5.2V31l-8.7,21.8h-4.6L68.2,31v23.3h-4.6V24.5H70.2z">
  </path>
  <path style="fill-rule:evenodd;clip-rule:evenodd;fill:#FFFFFF;" d="M108.1,32.2c-4.2,0-6.9,1-6.9,1v4h0.3c0,0,2.7-1.1,5.8-1.1c2.1,0,3.2,0.5,3.8,1.4c0.6,1,0.6,1.8,0.6,3.6
		c0,0-0.8-0.1-2-0.1c-6.8,0-10.6,2.3-10.6,7c0,3.9,2.7,6.5,6.9,6.5c3.1,0,5.6-1.4,6.3-4c0.3,2.9,2,3.9,4.8,3.9
		c1.6,0,2.7-0.3,2.7-0.3v-3.6c0,0-0.5,0.2-1.1,0.2c-1.8,0-1.8-1.6-1.8-2.5v-7.4c0-2,0-4.2-1.2-5.9C114.2,32.7,111.3,32.2,108.1,32.2
		z M111.1,48.6c-0.7,1.3-2.1,2.1-3.6,2.1c-2,0-3-1.2-3-2.9c0-3.4,3.9-3.4,6.2-3.4h1.2v0.5C111.8,45.7,111.8,47.3,111.1,48.6z">
  </path>
  <path style="fill:#FFFFFF;" d="M136.4,37.2h-0.3c0,0-2.7-1.1-5.2-1.1c-2.2,0-3.2,0.9-3.2,2c0,3.4,9.7,2.4,9.7,9.9c0,4.6-3.6,6.7-8.8,6.7
		c-3.7,0-6.1-1-6.1-1v-4.2h0.3c0,0,3.3,1.3,6,1.3c2.3,0,3.4-1,3.4-2.2c0-3.9-9.7-2.8-9.7-9.9c0-4,3.1-6.5,8.5-6.5
		c3.1,0,5.4,0.8,5.4,0.8V37.2z">
  </path>
  <path style="fill:#FFFFFF;" d="M154.4,37.2h-0.3c0,0-2.7-1.1-5.2-1.1c-2.2,0-3.2,0.9-3.2,2c0,3.4,9.7,2.4,9.7,9.9c0,4.6-3.6,6.7-8.8,6.7
		c-3.7,0-6.1-1-6.1-1v-4.2h0.3c0,0,3.3,1.3,6,1.3c2.3,0,3.4-1,3.4-2.2c0-3.9-9.7-2.8-9.7-9.9c0-4,3.1-6.5,8.5-6.5
		c3.1,0,5.4,0.8,5.4,0.8V37.2z">
  </path>
  <path style="fill:#FFFFFF;" d="M191.1,38.5v14.6c0,0-3.8,1.6-9,1.6c-9,0-15.2-4.8-15.2-15c0-10.5,6.5-15.4,15.9-15.4c4.3,0,7.4,1,7.4,1v4.2
		h-0.3c0,0-3.1-1.3-7-1.3c-6.5,0-10.5,3.5-10.5,11.2c0,7.7,4,11.4,9.7,11.4c2.2,0,3.8-0.6,3.8-0.6v-7.7h-5.2v-4H191.1z">
  </path>
  <path style="fill-rule:evenodd;clip-rule:evenodd;fill:#FFFFFF;" d="M206.2,54.6c3.9,0,6.8-1,6.8-1v-4h-0.3c0,0-3.1,1.2-6.1,1.2c-4.1,0-6.2-2.2-6.2-5.9h13.8c0-3.4,0-6.7-1.5-9.1
		c-1.5-2.5-4.1-3.8-7.7-3.8c-6.4,0-10,4.5-10,11.6c0,3.6,0.9,6.5,2.9,8.4C199.6,53.5,202.1,54.6,206.2,54.6z M205,35.6
		c3,0,4.1,2.1,4.1,5.7h-8.6C200.7,37.8,201.9,35.6,205,35.6z">
  </path>
  <path style="fill:#FFFFFF;" d="M222.6,32.5l0.9,3.7c0.7-2.5,2.7-4.2,6.4-4.2c3.3,0,5.2,1.3,6.2,2.9c1.3,1.8,1.3,4,1.3,6.6v12.8h-5.2V41.4
		c0-1.3,0-2.5-0.7-3.6c-0.7-1-1.7-1.6-3.4-1.6c-3.9,0-4.3,3-4.3,4.8v13.3h-5.2V32.5H222.6L222.6,32.5z">
  </path>
  <path style="fill-rule:evenodd;clip-rule:evenodd;fill:#FFFFFF;" d="M252.4,54.6c3.9,0,6.8-1,6.8-1v-4h-0.3c0,0-3.1,1.2-6.1,1.2c-4.1,0-6.2-2.2-6.2-5.9h13.8c0-3.4,0-6.7-1.5-9.1
		c-1.5-2.5-4.1-3.8-7.7-3.8c-6.4,0-10,4.5-10,11.6c0,3.6,0.9,6.5,2.9,8.4C245.9,53.5,248.3,54.6,252.4,54.6z M251.2,35.6
		c3,0,4.1,2.1,4.1,5.7h-8.6C247,37.8,248.2,35.6,251.2,35.6z">
  </path>
  <path style="fill:#FFFFFF;" d="M276.9,37.2c0,0-1.1-0.2-2.3-0.2c-4.6,0-4.6,3.4-4.6,5.1v12.2h-5.2V32.5h3.9l1,4.3c0.8-3.6,3.4-4.5,6.6-4.5
		h0.5V37.2z">
  </path>
  <path style="fill-rule:evenodd;clip-rule:evenodd;fill:#FFFFFF;" d="M287.2,32.2c-4.2,0-6.9,1-6.9,1v4h0.3c0,0,2.7-1.1,5.8-1.1c2.1,0,3.2,0.5,3.8,1.4c0.6,1,0.6,1.8,0.6,3.6
		c0,0-0.8-0.1-2-0.1c-6.8,0-10.6,2.3-10.6,7c0,3.9,2.7,6.5,6.9,6.5c3.1,0,5.6-1.4,6.3-4c0.3,2.9,2,3.9,4.8,3.9
		c1.6,0,2.7-0.3,2.7-0.3v-3.6c0,0-0.5,0.2-1.1,0.2c-1.8,0-1.8-1.6-1.8-2.5v-7.4c0-2,0-4.2-1.2-5.9C293.3,32.7,290.4,32.2,287.2,32.2
		z M290.1,48.6c-0.7,1.3-2.1,2.1-3.6,2.1c-2,0-3-1.2-3-2.9c0-3.4,3.9-3.4,6.2-3.4h1.2v0.5C290.8,45.7,290.8,47.3,290.1,48.6z">
  </path>
  <path style="fill:#FFFFFF;" d="M307.2,23.4v13.4v17.5h-5.1V23.4H307.2z">
  </path>
  <path style="fill-rule:evenodd;clip-rule:evenodd;fill:#FFFFFF;" d="M331.2,24.5c2.3,0,4.8,0,6.9,1.3c1.8,1.1,3.2,2.9,3.2,6.1c0,5.9-5.2,6.5-5.2,6.5s6.9,0.3,6.9,7.4
		c0,3.4-1.6,5.5-3.7,6.9c-2.6,1.7-5.6,1.7-8,1.7h-9.6V24.5H331.2z M326.9,36.8h3.6c1.2,0,2.4,0,3.5-0.6c1.1-0.6,1.9-1.7,1.9-3.6
		c0-1.8-0.8-3-1.9-3.6c-1.1-0.6-2.3-0.6-3.5-0.6h-3.6V36.8z M331.1,50.5h-4.2v-9.7h4.2c1.3,0,2.9,0,4.4,0.9c1.4,0.8,2.1,2.1,2.1,4
		c0,1.9-0.7,3.2-2.1,4C334,50.5,332.4,50.5,331.1,50.5z">
  </path>
  <path style="fill:#FFFFFF;" d="M359,37.2c0,0-1.1-0.2-2.3-0.2c-4.6,0-4.6,3.4-4.6,5.1v12.2h-5.2V32.5h3.9l1,4.3c0.8-3.6,3.4-4.5,6.6-4.5h0.5
		V37.2z">
  </path>
  <path style="fill-rule:evenodd;clip-rule:evenodd;fill:#FFFFFF;" d="M364.6,29.4c1.8,0,3.1-1.3,3.1-3.1c0-1.7-1.3-3.1-3.1-3.1s-3.1,1.3-3.1,3.1C361.5,28.1,362.8,29.4,364.6,29.4z
		 M367.2,36.8v-4.3h-5.1v21.8h5.1V36.8z">
  </path>
  <path style="fill-rule:evenodd;clip-rule:evenodd;fill:#FFFFFF;" d="M380.9,46c-1.1,0-2-0.1-2.9-0.3c-0.5,0.3-1.1,0.8-1.1,1.8c0,1.7,1.7,1.7,2.9,1.7h3.7c2.7,0,8.4,0,8.4,5.9
		c0,4.8-3.8,7.3-11.6,7.3c-6.9,0-9.9-1.9-9.9-5.3c0-3.7,3.7-4.3,4.1-4.4c0,0,0,0,0,0c-0.1,0-2.8-1-2.8-3.7c0-2.8,2.7-3.7,4-4
		c-2.3-1.2-3.7-3.3-3.7-6c0-4.3,3.4-7,8.8-7c2.7,0,4.9,0.7,6.4,1.9c1-2.8,3.2-2.8,4.6-2.8h0.5v4.3c0,0-0.8-0.2-1.7-0.2
		c-1,0-1.5,0.2-1.8,0.3c0.6,1,0.9,2.2,0.9,3.5C389.7,43.3,386.3,46,380.9,46z M376.5,53.5c0,0-1.5,0.8-1.5,2.6
		c0,1.9,1.6,2.8,5.4,2.8c4.1,0,6.3-1,6.3-3.1c0-2.2-2.7-2.3-3.9-2.3H376.5z M380.9,35.6c2.3,0,3.6,1.2,3.6,3.4
		c0,2.2-1.3,3.4-3.6,3.4c-2.3,0-3.6-1.2-3.6-3.4C377.3,36.8,378.6,35.6,380.9,35.6z">
  </path>
  <path style="fill:#FFFFFF;" d="M400.7,23.4v12.5c0.7-2.3,2.4-3.9,6.1-3.9c3.4,0,5.2,1.3,6.3,2.9c1.3,1.8,1.3,4,1.3,6.6v12.8h-5.2V41.4
		c0-1.3,0-2.5-0.7-3.6c-0.7-1-1.7-1.6-3.4-1.6c-3.9,0-4.3,3-4.3,4.8v13.3h-5.1V23.4H400.7z">
  </path>
  <path style="fill-rule:evenodd;clip-rule:evenodd;fill:#FFFFFF;" d="M426.9,32.2c-4.2,0-6.9,1-6.9,1v4h0.3c0,0,2.7-1.1,5.8-1.1c2.1,0,3.2,0.5,3.8,1.4c0.6,1,0.6,1.8,0.6,3.6
		c0,0-0.8-0.1-2-0.1c-6.8,0-10.6,2.3-10.6,7c0,3.9,2.7,6.5,6.9,6.5c3.1,0,5.6-1.4,6.3-4c0.3,2.9,2,3.9,4.8,3.9
		c1.6,0,2.7-0.3,2.7-0.3v-3.6c0,0-0.5,0.2-1.1,0.2c-1.8,0-1.8-1.6-1.8-2.5v-7.4c0-2,0-4.2-1.2-5.9C433,32.7,430.1,32.2,426.9,32.2z
		 M429.8,48.6c-0.7,1.3-2.1,2.1-3.6,2.1c-2,0-3-1.2-3-2.9c0-3.4,3.9-3.4,6.2-3.4h1.2v0.5C430.6,45.7,430.6,47.3,429.8,48.6z">
  </path>
  <path style="fill:#FFFFFF;" d="M445.9,32.5l0.9,3.7c0.6-2.5,2.4-4.2,6.2-4.2c3.7,0,5.6,1.7,6.5,4.4c1-2.9,3-4.4,6.3-4.4c3.4,0,5.2,1.5,6,2.9
		c1.2,1.8,1.2,4,1.2,6.6v12.8h-5.2V41.4c0-1.3,0-2.5-0.6-3.6c-0.5-0.9-1.5-1.6-3.2-1.6c-3.5,0-4,3-4,4.8v13.3h-5.2V41.4
		c0-1.3,0-2.5-0.6-3.6c-0.5-0.9-1.5-1.6-3.2-1.6c-3.5,0-4,3-4,4.8v13.3h-5.2V32.5H445.9L445.9,32.5z">
  </path>
  <path style="fill:#FFFFFF;" d="M6.2,24.7H0v10.5v9.5h6.2V24.7z">
  </path>
  <path style="fill:#FFFFFF;" d="M13.4,24.7v10.5v9.5h6.2V24.7H13.4z">
  </path>
  <path style="fill:#FFFFFF;" d="M26.8,24.7v10.5v9.5H33V24.7H26.8z">
  </path>
  <path style="fill:#FFFFFF;" d="M0,21h23.2h23.2v-5.6H0V21z">
  </path>
  <path style="fill:#FFFFFF;" d="M23.2,0L0,7.7v5.8l23.2-7.7l23.2,7.7V7.7L23.2,0z">
  </path>
  <path style="fill:#FFFFFF;" d="M46.4,44.2c-0.1,0.3-2.4,4.2-17.2,4.2h-12C2,48.5,0.3,50.5,0,50.7v5.7c0.3-0.2,2-2.2,17.2-2.3h12
		c14.8,0,17.1-3.8,17.2-4.2V44.2z">
  </path>
  <path style="fill:#FFFFFF;" d="M46.4,53.8c-0.1,0.3-2.4,4.2-17.2,4.2h-12C2,58.1,0.3,60.1,0,60.3V66c0.3-0.2,2-2.2,17.2-2.3h12
		c14.8,0,17.1-3.8,17.2-4.2V53.8z">
  </path>
  <path style="fill:#FFFFFF;" d="M40.2,24.7v18.9c5.1-1.2,6.2-3,6.2-3.2V24.7H40.2z">
  </path>
 </g>
</svg>