<svg width="410" height="40" viewBox="0 0 410 40" fill="none" xmlns="http://www.w3.org/2000/svg">
<path d="M7.2 1.5L16.6 24.2L25.8 1.5H32.4V31.3H27.2V8L18.5 29.8H13.9L5.2 8V31.3H0.600006V1.5H7.2Z" fill="white"/>
<path fill-rule="evenodd" clip-rule="evenodd" d="M45.1 9.20001C40.9 9.20001 38.2 10.2 38.2 10.2V14.2H38.5C38.5 14.2 41.2 13.1 44.3 13.1C46.4 13.1 47.5 13.6 48.1 14.5C48.7 15.5 48.7 16.3 48.7 18.1C48.7 18.1 47.9 18 46.7 18C39.9 18 36.1 20.3 36.1 25C36.1 28.9 38.8 31.5 43 31.5C46.1 31.5 48.6 30.1 49.3 27.5C49.6 30.4 51.3 31.4 54.1 31.4C55.7 31.4 56.8 31.1 56.8 31.1V27.5C56.8 27.5 56.3 27.7 55.7 27.7C53.9 27.7 53.9 26.1 53.9 25.2V17.8C53.9 15.8 53.9 13.6 52.7 11.9C51.2 9.70001 48.3 9.20001 45.1 9.20001ZM48.1 25.6C47.4 26.9 46 27.7 44.5 27.7C42.5 27.7 41.5 26.5 41.5 24.8C41.5 21.4 45.4 21.4 47.7 21.4H48.9V21.9C48.8 22.7 48.8 24.3 48.1 25.6Z" fill="white"/>
<path d="M73.4 14.2H73.1C73.1 14.2 70.4 13.1 67.9 13.1C65.7 13.1 64.7 14 64.7 15.1C64.7 18.5 74.4 17.5 74.4 25C74.4 29.6 70.8 31.7 65.6 31.7C61.9 31.7 59.5 30.7 59.5 30.7V26.5H59.8C59.8 26.5 63.1 27.8 65.8 27.8C68.1 27.8 69.2 26.8 69.2 25.6C69.2 21.7 59.5 22.8 59.5 15.7C59.5 11.7 62.6 9.20001 68 9.20001C71.1 9.20001 73.4 10 73.4 10V14.2Z" fill="white"/>
<path d="M91.4 14.2H91.1C91.1 14.2 88.4 13.1 85.9 13.1C83.7 13.1 82.7 14 82.7 15.1C82.7 18.5 92.4 17.5 92.4 25C92.4 29.6 88.8 31.7 83.6 31.7C79.9 31.7 77.5 30.7 77.5 30.7V26.5H77.8C77.8 26.5 81.1 27.8 83.8 27.8C86.1 27.8 87.2 26.8 87.2 25.6C87.2 21.7 77.5 22.8 77.5 15.7C77.5 11.7 80.6 9.20001 86 9.20001C89.1 9.20001 91.4 10 91.4 10V14.2Z" fill="white"/>
<path d="M128.1 15.5V30.1C128.1 30.1 124.3 31.7 119.1 31.7C110.1 31.7 103.9 26.9 103.9 16.7C103.9 6.19999 110.4 1.29999 119.8 1.29999C124.1 1.29999 127.2 2.29999 127.2 2.29999V6.49999H126.9C126.9 6.49999 123.8 5.19999 119.9 5.19999C113.4 5.19999 109.4 8.69999 109.4 16.4C109.4 24.1 113.4 27.8 119.1 27.8C121.3 27.8 122.9 27.2 122.9 27.2V19.5H117.7V15.5H128.1Z" fill="white"/>
<path fill-rule="evenodd" clip-rule="evenodd" d="M143.2 31.6C147.1 31.6 150 30.6 150 30.6V26.6H149.7C149.7 26.6 146.6 27.8 143.6 27.8C139.5 27.8 137.4 25.6 137.4 21.9H151.2C151.2 18.5 151.2 15.2 149.7 12.8C148.2 10.3 145.6 9 142 9C135.6 9 132 13.5 132 20.6C132 24.2 132.9 27.1 134.9 29C136.6 30.5 139.1 31.6 143.2 31.6ZM142 12.6C145 12.6 146.1 14.7 146.1 18.3H137.5C137.7 14.8 138.9 12.6 142 12.6Z" fill="white"/>
<path d="M159.6 9.5L160.5 13.2C161.2 10.7 163.2 9 166.9 9C170.2 9 172.1 10.3 173.1 11.9C174.4 13.7 174.4 15.9 174.4 18.5V31.3H169.2V18.4C169.2 17.1 169.2 15.9 168.5 14.8C167.8 13.8 166.8 13.2 165.1 13.2C161.2 13.2 160.8 16.2 160.8 18V31.3H155.6V9.5H159.6Z" fill="white"/>
<path fill-rule="evenodd" clip-rule="evenodd" d="M189.4 31.6C193.3 31.6 196.2 30.6 196.2 30.6V26.6H195.9C195.9 26.6 192.8 27.8 189.8 27.8C185.7 27.8 183.6 25.6 183.6 21.9H197.4C197.4 18.5 197.4 15.2 195.9 12.8C194.4 10.3 191.8 9 188.2 9C181.8 9 178.2 13.5 178.2 20.6C178.2 24.2 179.1 27.1 181.1 29C182.9 30.5 185.3 31.6 189.4 31.6ZM188.2 12.6C191.2 12.6 192.3 14.7 192.3 18.3H183.7C184 14.8 185.2 12.6 188.2 12.6Z" fill="white"/>
<path d="M213.9 14.2C213.9 14.2 212.8 14 211.6 14C207 14 207 17.4 207 19.1V31.3H201.8V9.49999H205.7L206.7 13.8C207.5 10.2 210.1 9.29999 213.3 9.29999H213.8V14.2H213.9Z" fill="white"/>
<path fill-rule="evenodd" clip-rule="evenodd" d="M224.2 9.20001C220 9.20001 217.3 10.2 217.3 10.2V14.2H217.6C217.6 14.2 220.3 13.1 223.4 13.1C225.5 13.1 226.6 13.6 227.2 14.5C227.8 15.5 227.8 16.3 227.8 18.1C227.8 18.1 227 18 225.8 18C219 18 215.2 20.3 215.2 25C215.2 28.9 217.9 31.5 222.1 31.5C225.2 31.5 227.7 30.1 228.4 27.5C228.7 30.4 230.4 31.4 233.2 31.4C234.8 31.4 235.9 31.1 235.9 31.1V27.5C235.9 27.5 235.4 27.7 234.8 27.7C233 27.7 233 26.1 233 25.2V17.8C233 15.8 233 13.6 231.8 11.9C230.3 9.70001 227.4 9.20001 224.2 9.20001ZM227.1 25.6C226.4 26.9 225 27.7 223.5 27.7C221.5 27.7 220.5 26.5 220.5 24.8C220.5 21.4 224.4 21.4 226.7 21.4H227.9V21.9C227.8 22.7 227.8 24.3 227.1 25.6Z" fill="white"/>
<path d="M244.2 0.400024V13.8V31.3H239.1V0.400024H244.2Z" fill="white"/>
<path fill-rule="evenodd" clip-rule="evenodd" d="M268.2 1.5C270.5 1.5 273 1.5 275.1 2.8C276.9 3.9 278.3 5.7 278.3 8.9C278.3 14.8 273.1 15.4 273.1 15.4C273.1 15.4 280 15.7 280 22.8C280 26.2 278.4 28.3 276.3 29.7C273.7 31.4 270.7 31.4 268.3 31.4H258.7V1.5H268.2ZM263.9 13.8H267.5C268.7 13.8 269.9 13.8 271 13.2C272.1 12.6 272.9 11.5 272.9 9.6C272.9 7.8 272.1 6.6 271 6C269.9 5.4 268.7 5.4 267.5 5.4H263.9V13.8ZM268.1 27.5H263.9V17.8H268.1C269.4 17.8 271 17.8 272.5 18.7C273.9 19.5 274.6 20.8 274.6 22.7C274.6 24.6 273.9 25.9 272.5 26.7C271 27.5 269.4 27.5 268.1 27.5Z" fill="white"/>
<path d="M296 14.2C296 14.2 294.9 14 293.7 14C289.1 14 289.1 17.4 289.1 19.1V31.3H283.9V9.49999H287.8L288.8 13.8C289.6 10.2 292.2 9.29999 295.4 9.29999H295.9V14.2H296Z" fill="white"/>
<path fill-rule="evenodd" clip-rule="evenodd" d="M301.6 6.40001C303.4 6.40001 304.7 5.10001 304.7 3.30001C304.7 1.60001 303.4 0.200012 301.6 0.200012C299.8 0.200012 298.5 1.50001 298.5 3.30001C298.5 5.10001 299.8 6.40001 301.6 6.40001ZM304.2 13.8V9.50001H299.1V31.3H304.2V13.8Z" fill="white"/>
<path fill-rule="evenodd" clip-rule="evenodd" d="M317.9 23C316.8 23 315.9 22.9 315 22.7C314.5 23 313.9 23.5 313.9 24.5C313.9 26.2 315.6 26.2 316.8 26.2H320.5C323.2 26.2 328.9 26.2 328.9 32.1C328.9 36.9 325.1 39.4 317.3 39.4C310.4 39.4 307.4 37.5 307.4 34.1C307.4 30.4 311.1 29.8 311.5 29.7C311.4 29.7 308.7 28.7 308.7 26C308.7 23.2 311.4 22.3 312.7 22C310.4 20.8 309 18.7 309 16C309 11.7 312.4 9.00004 317.8 9.00004C320.5 9.00004 322.7 9.70004 324.2 10.9C325.2 8.10004 327.4 8.10004 328.8 8.10004H329.3V12.4C329.3 12.4 328.5 12.2 327.6 12.2C326.6 12.2 326.1 12.4 325.8 12.5C326.4 13.5 326.7 14.7 326.7 16C326.7 20.3 323.3 23 317.9 23ZM313.5 30.5C313.5 30.5 312 31.3 312 33.1C312 35 313.6 35.9 317.4 35.9C321.5 35.9 323.7 34.9 323.7 32.8C323.7 30.6 321 30.5 319.8 30.5H313.5ZM317.9 12.6C320.2 12.6 321.5 13.8 321.5 16C321.5 18.2 320.2 19.4 317.9 19.4C315.6 19.4 314.3 18.2 314.3 16C314.3 13.8 315.6 12.6 317.9 12.6Z" fill="white"/>
<path d="M337.7 0.400024V12.9C338.4 10.6 340.1 9.00002 343.8 9.00002C347.2 9.00002 349 10.3 350.1 11.9C351.4 13.7 351.4 15.9 351.4 18.5V31.3H346.2V18.4C346.2 17.1 346.2 15.9 345.5 14.8C344.8 13.8 343.8 13.2 342.1 13.2C338.2 13.2 337.8 16.2 337.8 18V31.3H332.7V0.400024H337.7Z" fill="white"/>
<path fill-rule="evenodd" clip-rule="evenodd" d="M363.9 9.20001C359.7 9.20001 357 10.2 357 10.2V14.2H357.3C357.3 14.2 360 13.1 363.1 13.1C365.2 13.1 366.3 13.6 366.9 14.5C367.5 15.5 367.5 16.3 367.5 18.1C367.5 18.1 366.7 18 365.5 18C358.7 18 354.9 20.3 354.9 25C354.9 28.9 357.6 31.5 361.8 31.5C364.9 31.5 367.4 30.1 368.1 27.5C368.4 30.4 370.1 31.4 372.9 31.4C374.5 31.4 375.6 31.1 375.6 31.1V27.5C375.6 27.5 375.1 27.7 374.5 27.7C372.7 27.7 372.7 26.1 372.7 25.2V17.8C372.7 15.8 372.7 13.6 371.5 11.9C370 9.70001 367.1 9.20001 363.9 9.20001ZM366.8 25.6C366.1 26.9 364.7 27.7 363.2 27.7C361.2 27.7 360.2 26.5 360.2 24.8C360.2 21.4 364.1 21.4 366.4 21.4H367.6V21.9C367.6 22.7 367.6 24.3 366.8 25.6Z" fill="white"/>
<path d="M382.9 9.5L383.8 13.2C384.4 10.7 386.2 9 390 9C393.7 9 395.6 10.7 396.5 13.4C397.5 10.5 399.5 9 402.8 9C406.2 9 408 10.5 408.8 11.9C410 13.7 410 15.9 410 18.5V31.3H404.8V18.4C404.8 17.1 404.8 15.9 404.2 14.8C403.7 13.9 402.7 13.2 401 13.2C397.5 13.2 397 16.2 397 18V31.3H391.8V18.4C391.8 17.1 391.8 15.9 391.2 14.8C390.7 13.9 389.7 13.2 388 13.2C384.5 13.2 384 16.2 384 18V31.3H378.8V9.5H382.9Z" fill="white"/>
</svg>
